<svg id="Layer_1" data-name="Layer 1" xmlns="http://www.w3.org/2000/svg" xmlns:xlink="http://www.w3.org/1999/xlink" viewBox="0 0 110.73 44.82"><defs><linearGradient id="linear-gradient" x1="49.19" y1="66.95" x2="53.08" y2="87.85" gradientUnits="userSpaceOnUse"><stop offset="0" stop-color="aqua"/><stop offset="0.09" stop-color="#0cffff"/><stop offset="0.25" stop-color="#2cffff"/><stop offset="0.46" stop-color="#60ffff"/><stop offset="0.72" stop-color="#a8ffff"/><stop offset="1" stop-color="#fff"/></linearGradient><linearGradient id="linear-gradient-2" x1="36.06" y1="73.58" x2="31.18" y2="43.78" gradientUnits="userSpaceOnUse"><stop offset="0" stop-color="#ed1c6b"/><stop offset="0.1" stop-color="#ee2873"/><stop offset="0.27" stop-color="#f04888"/><stop offset="0.5" stop-color="#f57caa"/><stop offset="0.78" stop-color="#fac3d8"/><stop offset="1" stop-color="#fff"/></linearGradient><linearGradient id="linear-gradient-3" x1="48.6" y1="58.03" x2="52.2" y2="91.76" xlink:href="#linear-gradient"/></defs><title>asksv-logo</title><path d="M85.25,66.67V73.2a1,1,0,0,1-.25.7.94.94,0,0,1-.69.26,1,1,0,0,1-.69-.26.94.94,0,0,1-.27-.7V72.05A3.32,3.32,0,0,1,82,73.64a4,4,0,0,1-2.16.57,4.62,4.62,0,0,1-2.07-.46,3.6,3.6,0,0,1-1.5-1.27,3.12,3.12,0,0,1-.56-1.8,2.91,2.91,0,0,1,.68-2.05,4,4,0,0,1,2.2-1.06,22.45,22.45,0,0,1,4.28-.32h.52v-.79a3.2,3.2,0,0,0-.58-2.12,2.46,2.46,0,0,0-1.91-.67,7.06,7.06,0,0,0-3.31.89,2.27,2.27,0,0,1-.92.41.61.61,0,0,1-.48-.22A.83.83,0,0,1,76,64.2a.91.91,0,0,1,.21-.59,2.09,2.09,0,0,1,.66-.51,7.54,7.54,0,0,1,1.9-.76,8.72,8.72,0,0,1,2.13-.28Q85.26,62.06,85.25,66.67Zm-2.82,5a3.51,3.51,0,0,0,.92-2.51V68.5h-.43a21.32,21.32,0,0,0-3.21.18,3.18,3.18,0,0,0-1.58.6,1.57,1.57,0,0,0-.46,1.23,2,2,0,0,0,.68,1.55,2.48,2.48,0,0,0,1.72.61A3.11,3.11,0,0,0,82.43,71.7Z" transform="translate(-18.88 -44.71)" fill="#333"/><path d="M89.44,73.94a6.28,6.28,0,0,1-1.77-.74,2.41,2.41,0,0,1-.61-.54,1,1,0,0,1-.18-.61.77.77,0,0,1,.18-.52.62.62,0,0,1,.47-.2,1.81,1.81,0,0,1,.84.36,8,8,0,0,0,1.43.68,5.25,5.25,0,0,0,1.76.25,3.8,3.8,0,0,0,2-.45,1.48,1.48,0,0,0,.72-1.32A1.27,1.27,0,0,0,94,70a2.13,2.13,0,0,0-.91-.58,13,13,0,0,0-1.89-.52,7.13,7.13,0,0,1-3-1.22,2.58,2.58,0,0,1-.91-2.09,3,3,0,0,1,.58-1.82,3.79,3.79,0,0,1,1.59-1.25,5.68,5.68,0,0,1,2.32-.46,6.44,6.44,0,0,1,1.81.26,5.35,5.35,0,0,1,1.55.7,1.58,1.58,0,0,1,.81,1.2.75.75,0,0,1-.19.53.58.58,0,0,1-.45.22,1.83,1.83,0,0,1-.87-.41,7.49,7.49,0,0,0-1.27-.67,4,4,0,0,0-1.49-.24,3,3,0,0,0-1.81.5,1.59,1.59,0,0,0-.68,1.35,1.34,1.34,0,0,0,.25.85,2.09,2.09,0,0,0,.84.57,9.34,9.34,0,0,0,1.69.5,11.92,11.92,0,0,1,2.53.79,3,3,0,0,1,1.29,1.05,3.07,3.07,0,0,1,.38,1.59,2.85,2.85,0,0,1-1.27,2.43,5.57,5.57,0,0,1-3.36.93A8,8,0,0,1,89.44,73.94Z" transform="translate(-18.88 -44.71)" fill="#333"/><path d="M107.64,73.27a.88.88,0,0,1-.25.63.83.83,0,0,1-.61.26,1,1,0,0,1-.65-.29l-6.26-5.4V73.2a.94.94,0,0,1-.28.71,1,1,0,0,1-.68.25,1,1,0,0,1-.71-.25.91.91,0,0,1-.28-.71V58a.91.91,0,0,1,.28-.71,1,1,0,0,1,.71-.25,1,1,0,0,1,.68.25.94.94,0,0,1,.28.71V67.7l5.73-5.25a.91.91,0,0,1,.65-.29.85.85,0,0,1,.62.26.86.86,0,0,1,.27.63,1,1,0,0,1-.34.72L102.07,68l5.19,4.51A1.07,1.07,0,0,1,107.64,73.27Z" transform="translate(-18.88 -44.71)" fill="#333"/><path d="M108.51,73.2a1.42,1.42,0,0,1-.77-1.3,1.17,1.17,0,0,1,.26-.78.83.83,0,0,1,.65-.3,2.64,2.64,0,0,1,1.13.39,10.83,10.83,0,0,0,1.4.55,5.71,5.71,0,0,0,1.62.19,3.11,3.11,0,0,0,1.57-.33,1.05,1.05,0,0,0,.57-.94.92.92,0,0,0-.23-.65,2,2,0,0,0-.82-.44,16.66,16.66,0,0,0-1.78-.47,6.93,6.93,0,0,1-3.06-1.22,2.73,2.73,0,0,1-.93-2.19,3.15,3.15,0,0,1,.63-1.91,4.1,4.1,0,0,1,1.71-1.32A6.32,6.32,0,0,1,113,62a7.32,7.32,0,0,1,1.94.25,6.06,6.06,0,0,1,1.68.73,1.45,1.45,0,0,1,.77,1.27,1.24,1.24,0,0,1-.27.81.8.8,0,0,1-.64.32,1.35,1.35,0,0,1-.52-.11c-.17-.07-.38-.18-.64-.32a9.52,9.52,0,0,0-1.2-.54,3.69,3.69,0,0,0-1.24-.18,2.43,2.43,0,0,0-1.41.36,1.14,1.14,0,0,0-.51,1,1,1,0,0,0,.52.91,7.71,7.71,0,0,0,2,.63,11,11,0,0,1,2.52.77A2.83,2.83,0,0,1,117.3,69a3.33,3.33,0,0,1-1,4.27,6.05,6.05,0,0,1-3.61,1A7.69,7.69,0,0,1,108.51,73.2Z" transform="translate(-18.88 -44.71)" fill="#333"/><path d="M127.45,62.28a1.32,1.32,0,0,1,.71-.22,1.52,1.52,0,0,1,1,.38,1.15,1.15,0,0,1,.44.92,1.41,1.41,0,0,1-.14.58L125,73.22a1.62,1.62,0,0,1-.61.7,1.69,1.69,0,0,1-.88.24,1.77,1.77,0,0,1-.88-.24,1.48,1.48,0,0,1-.63-.7l-4.47-9.28a1.25,1.25,0,0,1-.12-.56,1.17,1.17,0,0,1,.47-.93,1.62,1.62,0,0,1,1.07-.39,1.34,1.34,0,0,1,1.27.84l3.36,7.42,3.34-7.39A1.49,1.49,0,0,1,127.45,62.28Z" transform="translate(-18.88 -44.71)" fill="#333"/><path d="M55.09,83.15l7.66-13.33a6.9,6.9,0,0,0-6-10.34l-15.38,0a6.89,6.89,0,0,0-6,10.35l7.71,13.31A6.9,6.9,0,0,0,55.09,83.15Z" transform="translate(-18.88 -44.71)" fill="url(#linear-gradient)"/><path d="M32.09,46.72l-12.68,22a4,4,0,0,0,3.48,6l25.42,0a4,4,0,0,0,3.45-6L39,46.7A4,4,0,0,0,32.09,46.72Z" transform="translate(-18.88 -44.71)" fill="url(#linear-gradient-2)"/><path d="M52.67,87.52,65.45,65.3a4,4,0,0,0-3.47-6l-25.63,0a4,4,0,0,0-3.46,6L45.75,87.53A4,4,0,0,0,52.67,87.52Z" transform="translate(-18.88 -44.71)" fill="url(#linear-gradient-3)"/></svg>